Coordinates
version=1
nRows=26
nColumns=24
inDegrees=yes

Units are S.I. units (second, meters, Newtons, ...)
Angles are in degrees.

endheader
time	pelvis_tilt	pelvis_list	pelvis_rotation	pelvis_tx	pelvis_ty	pelvis_tz	hip_flexion_r	hip_adduction_r	hip_rotation_r	knee_angle_r	ankle_angle_r	subtalar_angle_r	mtp_angle_r	hip_flexion_l	hip_adduction_l	hip_rotation_l	knee_angle_l	ankle_angle_l	subtalar_angle_l	mtp_angle_l	lumbar_extension	lumbar_bending	lumbar_rotation
      2.94000000	    -11.96510635	     -1.56485092	      6.97155334	     -1.87384966	     -0.04024644	     -0.30814036	     36.34538054	     -2.39411838	    -12.33021964	     -9.69486936	     -3.46208910	     -1.82872219	     13.25697209	     -4.97949854	     -0.40723571	     -5.85307727	    -14.87068210	      6.21005609	     -0.65935073	      4.71514384	      5.32851464	      2.13236525	     -9.07473609
      2.94500000	    -11.94833196	     -1.76223588	      6.95621347	     -1.86536193	     -0.04074881	     -0.30739458	     36.27147829	     -2.10014206	    -12.13170052	    -10.20337408	     -4.39913349	     -2.56720404	     13.49797413	     -5.03756344	     -0.84578365	     -6.05370138	    -15.65767923	      5.61114003	     -0.21338850	      5.11011333	      5.46158433	      2.33345872	     -9.05129288
      2.95000000	    -12.00779036	     -2.07501360	      6.93761874	     -1.85665804	     -0.04120537	     -0.30690088	     36.27552723	     -1.74573824	    -12.13891840	    -10.75517576	     -5.39480234	     -3.05890330	     13.53334285	     -5.00429319	     -1.35950239	     -6.02851977	    -16.45001300	      4.90775234	     -0.06157191	      5.21810830	      5.73602168	      2.68070592	     -9.03667000
      2.95500000	    -12.01012388	     -2.33315529	      6.74931400	     -1.84809784	     -0.04159362	     -0.30591473	     36.24350167	     -1.28046424	    -11.69396850	    -11.28361570	     -6.84519136	     -4.21736362	     14.00640805	     -4.98316179	     -1.87170550	     -6.45408926	    -17.32844616	      4.10423014	      0.37478537	      5.97653232	      5.89874005	      2.96764395	     -8.82931514
      2.96000000	    -12.06794013	     -2.65298717	      6.80066023	     -1.83960031	     -0.04180749	     -0.30534451	     36.25081425	     -0.94135200	    -11.59718337	    -11.84995079	     -8.15555338	     -5.18228557	     13.98598183	     -4.79455081	     -2.42232191	     -6.37596516	    -18.31937762	      3.19901630	      0.55322416	      6.23062713	      6.14436386	      3.29172878	     -8.92088278
      2.96500000	    -12.12451402	     -3.01013322	      6.55708324	     -1.83090611	     -0.04202646	     -0.30442145	     36.28405012	     -0.37566334	    -11.15965221	    -12.43153087	     -9.55292627	     -6.30301219	     14.02093699	     -4.63875059	     -3.02261307	     -6.73642215	    -19.30046468	      2.15696785	      0.82613160	      6.93943034	      6.40490720	      3.70237528	     -8.65759650
      2.97000000	    -12.18845756	     -3.36056321	      6.52118514	     -1.82237711	     -0.04205341	     -0.30374992	     36.31242948	      0.04837225	    -10.91544432	    -13.04413874	    -10.76094890	     -7.39224620	     13.74781684	     -4.35148788	     -3.60951725	     -6.74512281	    -20.41392291	      0.99124796	      0.94534121	      7.21671246	      6.66580810	      4.07056069	     -8.67552667
      2.97500000	    -12.19816982	     -3.77498037	      6.29236016	     -1.81366653	     -0.04200528	     -0.30281670	     36.28930118	      0.66863879	    -10.48792227	    -13.68527041	    -11.75291878	     -8.40670816	     12.92212844	     -4.14866890	     -4.29854998	     -7.09057331	    -21.43884274	     -0.71697179	      0.97233831	      9.59897491	      6.88797676	      4.54086176	     -8.45342367
      2.98000000	    -12.30462429	     -4.11174200	      6.14415593	     -1.80513447	     -0.04194920	     -0.30203501	     36.37888175	      1.14107592	    -10.09535559	    -14.36383594	    -12.61889642	     -9.38366828	     12.52888031	     -3.72094242	     -4.86776176	     -7.18388629	    -22.70365339	     -2.08745948	      1.07098644	      9.54508120	      7.18849846	      4.91388298	     -8.33808335
      2.98500000	    -12.38775806	     -4.44734804	      5.84737741	     -1.79651474	     -0.04190083	     -0.30094943	     36.45462178	      1.72413942	     -9.60926004	    -15.08569918	    -13.18914666	    -10.29363992	     11.79738961	     -3.29855723	     -5.48395477	     -7.60601436	    -24.01329973	     -3.64900921	      1.28268931	     10.05786481	      7.45822051	      5.29525079	     -8.03295678
      2.99000000	    -12.42696742	     -4.74844464	      5.72147029	     -1.78799243	     -0.04164601	     -0.30013372	     36.42731935	      2.17627284	     -9.20900657	    -15.75216509	    -13.55944742	    -11.13894611	     11.29449155	     -2.83543142	     -6.03217958	     -7.64125754	    -25.37058773	     -5.46341589	      1.20520402	     10.25678911	      7.68415892	      5.62655223	     -7.97753699
      2.99500000	    -12.44200455	     -5.10217760	      5.46329251	     -1.77937123	     -0.04138066	     -0.29909533	     36.37910533	      2.76477032	     -8.83288200	    -16.48781423	    -13.33051054	    -11.52447162	      9.32269506	     -2.40156642	     -6.68580712	     -7.95612045	    -26.64938407	     -7.90689425	      0.98593111	     12.90215348	      7.88614816	      6.03132928	     -7.74107083
      3.00000000	    -12.46605209	     -5.34925877	      5.24451666	     -1.77090208	     -0.04107465	     -0.29815431	     36.30314951	      3.22700318	     -8.46440162	    -17.12623054	    -13.29327403	    -12.10562486	      9.14909888	     -1.86305081	     -7.18984598	     -8.09082032	    -28.13583293	     -9.91230678	      0.87960409	     12.67696725	      8.06670821	      6.32473752	     -7.55331535
      3.00500000	    -12.50022867	     -5.57823828	      5.00327066	     -1.76246358	     -0.04075089	     -0.29716001	     36.20823130	      3.69194655	     -8.10124537	    -17.73140339	    -13.08294385	    -12.58427434	      8.97996910	     -1.26677185	     -7.67628652	     -8.22176974	    -29.66135015	    -12.06588448	      0.68286881	     12.59669348	      8.24942327	      6.59555331	     -7.34586755
      3.01000000	    -12.62012815	     -5.80941565	      4.71007786	     -1.75404432	     -0.04051566	     -0.29607944	     36.17994224	      4.18263358	     -7.71743315	    -18.32051392	    -12.62550542	    -12.83457430	      8.51104361	     -0.54283625	     -8.16341790	     -8.34942539	    -31.20004628	    -14.43681972	      0.37287851	     13.30636069	      8.51579217	      6.87111580	     -7.08379204
      3.01500000	    -12.51960295	     -6.04003143	      4.51154547	     -1.74581475	     -0.03994712	     -0.29516522	     35.85451385	      4.64584209	     -7.48572215	    -18.78246270	    -12.23326643	    -13.16882682	      8.48617439	      0.02130922	     -8.64202919	     -8.34403827	    -32.80379473	    -16.65970041	     -0.01825231	     12.97910222	      8.51636715	      7.15544318	     -6.92315693
      3.02000000	    -12.48417329	     -6.31051086	      4.26638286	     -1.73758816	     -0.03948672	     -0.29424163	     35.55562021	      5.16951255	     -7.20426470	    -19.18184234	    -11.73556958	    -13.41166882	      8.53934368	      0.69976565	     -9.15321979	     -8.34918109	    -34.47498414	    -18.72629381	     -0.45079771	     12.60585663	      8.58508519	      7.49137957	     -6.71698625
      3.02500000	    -12.56032250	     -6.42529506	      3.99056306	     -1.72961371	     -0.03905447	     -0.29323831	     35.36968467	      5.55529453	     -6.84438063	    -19.58175184	    -11.20983690	    -13.63205218	      8.53474762	      1.53888802	     -9.43959227	     -8.22734971	    -36.14413752	    -20.86065741	     -1.10123432	     12.22637897	      8.72091895	      7.65071964	     -6.47873762
      3.03000000	    -12.61499863	     -6.61917309	      3.72459711	     -1.72170584	     -0.03860694	     -0.29234314	     35.11299005	      6.00323086	     -6.56000482	    -19.89239086	    -10.65682612	    -13.76336791	      8.56083889	      2.41930286	     -9.80167799	     -8.08956364	    -37.88194623	    -22.75188123	     -1.80584852	     11.77909108	      8.82612722	      7.90787936	     -6.25459347
      3.03500000	    -12.71473743	     -6.81281171	      3.44239297	     -1.71390638	     -0.03819752	     -0.29150071	     34.87491771	      6.44400596	     -6.31060849	    -20.15375411	    -10.05358487	    -13.79897973	      8.58887750	      3.39937455	    -10.13374982	     -7.92083937	    -39.66571985	    -24.42304308	     -2.60660363	     11.18723667	      8.96087504	      8.17098958	     -6.00933500
      3.04000000	    -12.80716392	     -7.01635850	      3.17058479	     -1.70623465	     -0.03775658	     -0.29073109	     34.58942639	      6.88462460	     -6.07855583	    -20.33915015	     -9.47046633	    -13.82165849	      8.63987453	      4.42658347	    -10.44540204	     -7.70476636	    -41.48357281	    -25.87286354	     -3.53982011	     10.44944064	      9.06725496	      8.44925498	     -5.77570983
      3.04500000	    -12.91402934	     -7.23681419	      2.89907361	     -1.69865440	     -0.03731698	     -0.29002676	     34.28391530	      7.32992668	     -5.88027998	    -20.45689576	     -8.89635497	    -13.79782786	      8.73033215	      5.51822222	    -10.74766057	     -7.46554744	    -43.32896362	    -27.08814911	     -4.58767632	      9.60538098	      9.17437950	      8.75016942	     -5.54445459
      3.05000000	    -13.03144409	     -7.47845927	      2.62888626	     -1.69114925	     -0.03687903	     -0.28938501	     33.95434045	      7.78353573	     -5.71391092	    -20.50675330	     -8.33849652	    -13.73133878	      8.86053309	      6.66525254	    -11.04588185	     -7.20627336	    -45.19044471	    -28.06855745	     -5.75186023	      8.69842877	      9.28091838	      9.07756182	     -5.31369414
      3.05500000	    -13.15688965	     -7.74100820	      2.36089646	     -1.68370361	     -0.03644083	     -0.28880218	     33.59995142	      8.24483338	     -5.57854477	    -20.49301536	     -7.79799749	    -13.62267396	      9.02667477	      7.85908131	    -11.34114176	     -6.92953040	    -47.05625284	    -28.80516393	     -7.01635698	      7.74227464	      9.38599526	      9.43033520	     -5.08159937
      3.06000000	    -13.20873897	     -8.04738989	      2.13105479	     -1.67631057	     -0.03590158	     -0.28826182	     33.11841199	      8.74086337	     -5.44771209	    -20.37966815	     -7.34152095	    -13.60091024	      9.15469819	      9.00357440	    -11.66665848	     -6.62253363	    -48.88012696	    -29.40050375	     -8.42944674	      7.11503625	      9.40637905	      9.82318733	     -4.91171164
      3.06500000	    -13.43209789	     -8.30186866	      1.83580641	     -1.66894640	     -0.03558539	     -0.28778615	     32.83314405	      9.16278582	     -5.38722886	    -20.31265100	     -6.72648822	    -13.26285004	      9.43880742	     10.35511373	    -11.89864507	     -6.33677263	    -50.74485268	    -29.46909199	     -9.74252384	      5.71816680	      9.60131747	     10.17578157	     -4.61934945
